# Blender v2.82 (sub 7) OBJ File: 'Emerald.blend'
# www.blender.org
mtllib Emerald.mtl
o Cylinder_Cylinder.001
v 7.329292 -16.464636 7.816833
v 7.536121 -15.339703 9.685351
v -19.411930 -5.343418 4.081379
v -19.205101 -4.218485 5.949898
v -22.531225 -0.489867 1.504600
v -22.324396 0.635066 3.373119
v -14.479815 14.315182 -8.299935
v -14.272985 15.440115 -6.431416
v -7.536120 15.339703 -9.685351
v -7.329291 16.464636 -7.816833
v 19.205107 4.218481 -5.949897
v 19.411936 5.343414 -4.081378
v 22.324396 -0.635067 -3.373119
v 22.531225 0.489867 -1.504600
v 14.272988 -15.440113 6.431415
v 14.479817 -14.315180 8.299933
v 3.869164 -12.164780 0.525963
v -11.896418 -5.608146 -1.676313
v -10.870674 -0.029184 7.590365
v 4.894907 -6.585817 9.792643
v -13.735434 -2.746681 -3.195482
v -12.709690 2.832281 6.071198
v -8.988636 5.981800 -8.975855
v -7.962893 11.560762 0.290824
v -4.894904 6.585817 -9.792643
v -3.869162 12.164780 -0.525963
v 10.870680 0.029182 -7.590365
v 11.896423 5.608144 1.676314
v 12.709690 -2.832281 -6.071197
v 13.735432 2.746681 3.195482
v 7.962897 -11.560761 -0.290825
v 8.988640 -5.981799 8.975854
vt 1.000000 0.500000
vt 1.000000 1.000000
vt 0.875000 1.000000
vt 0.875000 0.500000
vt 0.750000 1.000000
vt 0.750000 0.500000
vt 0.625000 1.000000
vt 0.625000 0.500000
vt 0.500000 1.000000
vt 0.500000 0.500000
vt 0.375000 1.000000
vt 0.375000 0.500000
vt 0.250000 1.000000
vt 0.250000 0.500000
vt 0.500000 0.500000
vt 0.625000 0.500000
vt 0.125000 1.000000
vt 0.125000 0.500000
vt 0.000000 1.000000
vt 0.000000 0.500000
vt 0.375000 1.000000
vt 0.250000 1.000000
vt 0.419706 0.419706
vt 0.250000 0.490000
vt 0.080294 0.419706
vt 0.010000 0.250000
vt 0.080294 0.080294
vt 0.250000 0.010000
vt 0.419706 0.080294
vt 0.490000 0.250000
vt 0.750000 0.490000
vt 0.919706 0.419706
vt 0.990000 0.250000
vt 0.919706 0.080294
vt 0.750000 0.010000
vt 0.580294 0.080294
vt 0.510000 0.250000
vt 0.580294 0.419706
vt 0.625000 1.000000
vt 0.500000 1.000000
vt 0.750000 0.500000
vt 0.875000 0.500000
vt 0.125000 0.500000
vt 0.250000 0.500000
vt 0.875000 1.000000
vt 0.750000 1.000000
vt 0.125000 1.000000
vt 0.375000 0.500000
vt 0.000000 0.500000
vt 1.000000 0.500000
vt 0.000000 1.000000
vt 1.000000 1.000000
vn -0.3905 -0.7690 0.5062
vn -0.8645 -0.3825 0.3260
vn -0.9058 0.3997 -0.1404
vn -0.2216 0.8461 -0.4848
vn 0.3905 0.7690 -0.5062
vn 0.8645 0.3825 -0.3260
vn -0.1891 -0.0450 -0.9809
vn 0.9058 -0.3997 0.1404
vn 0.2216 -0.8461 0.4848
vn 0.4850 0.6324 0.6040
vn 0.0944 0.5135 0.8529
vn -0.0944 -0.5135 -0.8529
vn -0.0234 0.8562 0.5161
vn -0.4850 -0.6324 -0.6040
vn 0.3396 -0.6407 -0.6886
vn -0.3178 0.2772 0.9067
vn 0.5066 0.2673 0.8197
vn 0.1630 0.0613 -0.9847
vn 0.3128 0.8756 0.3680
vn -0.5066 -0.2673 -0.8197
vn 0.0234 -0.8562 -0.5161
vn -0.3128 -0.8756 -0.3680
vn -0.3396 0.6407 0.6886
vn 0.1891 0.0450 0.9809
vn -0.1630 -0.0613 0.9847
vn 0.3178 -0.2772 -0.9067
usemtl None
s off
f 1/1/1 2/2/1 4/3/1 3/4/1
f 3/4/2 4/3/2 6/5/2 5/6/2
f 5/6/3 6/5/3 8/7/3 7/8/3
f 7/8/4 8/7/4 10/9/4 9/10/4
f 9/10/5 10/9/5 12/11/5 11/12/5
f 11/12/6 12/11/6 14/13/6 13/14/6
f 7/8/7 9/10/7 25/15/7 23/16/7
f 13/14/8 14/13/8 16/17/8 15/18/8
f 15/18/9 16/17/9 2/19/9 1/20/9
f 14/13/10 12/11/10 28/21/10 30/22/10
f 19/23/11 20/24/11 32/25/11 30/26/11 28/27/11 26/28/11 24/29/11 22/30/11
f 17/31/12 18/32/12 21/33/12 23/34/12 25/35/12 27/36/12 29/37/12 31/38/12
f 10/9/13 8/7/13 24/39/13 26/40/13
f 3/4/14 5/6/14 21/41/14 18/42/14
f 13/14/15 15/18/15 31/43/15 29/44/15
f 6/5/16 4/3/16 19/45/16 22/46/16
f 16/17/17 14/13/17 30/22/17 32/47/17
f 9/10/18 11/12/18 27/48/18 25/15/18
f 12/11/19 10/9/19 26/40/19 28/21/19
f 5/6/20 7/8/20 23/16/20 21/41/20
f 15/18/21 1/20/21 17/49/21 31/43/21
f 1/1/22 3/4/22 18/42/22 17/50/22
f 8/7/23 6/5/23 22/46/23 24/39/23
f 2/19/24 16/17/24 32/47/24 20/51/24
f 4/3/25 2/2/25 20/52/25 19/45/25
f 11/12/26 13/14/26 29/44/26 27/48/26
