# Blender v2.82 (sub 7) OBJ File: 'Onyx.blend'
# www.blender.org
mtllib Onyx.mtl
o Cylinder
v 16.440718 -9.134655 4.651290
v 16.488630 -8.588127 5.420938
v -14.847186 -14.831869 10.644699
v -14.799272 -14.285341 11.414349
v -19.886385 -12.687541 9.435726
v -19.838472 -12.141013 10.205376
v -26.744062 5.012190 -2.705925
v -26.696150 5.558717 -1.936276
v -23.921160 8.588127 -5.420938
v -23.873247 9.134655 -4.651290
v 7.366746 14.285339 -11.414349
v 7.414660 14.831867 -10.644699
v 12.405941 12.141012 -10.205375
v 12.453854 12.687540 -9.435725
v 19.263620 -5.558717 1.936276
v 19.311533 -5.012190 2.705925
v 7.861440 -8.136097 -1.185657
v -10.487777 -11.477306 2.329261
v -9.972413 -5.598881 10.607570
v 8.376803 -2.257671 7.092651
v -13.443085 -10.219735 1.620242
v -12.927721 -4.341310 9.898550
v -17.464863 0.160513 -5.500396
v -16.949501 6.038939 2.777913
v -15.809333 2.257671 -7.092651
v -15.293969 8.136097 1.185657
v 2.539886 5.598880 -10.607569
v 3.055250 11.477305 -2.329260
v 5.495191 4.341310 -9.898550
v 6.010554 10.219735 -1.620242
v 9.516971 -6.038939 -2.777913
v 10.032334 -0.160513 5.500396
v -18.843382 -11.017921 10.161195
v -25.292715 5.627864 -1.257473
v 17.975409 -4.313589 3.108305
v 15.320595 -7.676596 5.661651
v -14.104246 -13.034565 11.298179
v 6.786942 14.348840 -9.447347
v 11.526074 12.332196 -8.310363
v -22.637901 8.990871 -3.810819
v 15.515421 -9.026958 4.021762
v 18.212421 -5.610509 1.427841
v -14.377013 -14.470073 9.747862
v 11.660602 11.299798 -10.172283
v 6.846158 13.348487 -11.327334
v -23.046282 7.905375 -5.601237
v -25.743282 4.488925 -3.007315
v -19.191463 -12.421382 8.592809
v 8.601566 -8.222241 -0.682110
v -10.863859 -11.766702 3.046625
v 6.091374 5.014182 -9.925020
v -16.509132 2.803794 -6.948435
v -13.998941 -10.432631 2.294476
v 10.357805 -5.997511 -2.371224
v 2.956294 6.348252 -10.677169
v -18.265371 0.579063 -5.259320
v -13.559885 -5.054791 9.926618
v 10.881153 -0.604322 5.244771
v 3.454029 11.784165 -3.089919
v -17.841080 5.995010 2.346681
v 9.118837 -2.836753 6.939732
v -10.413952 -6.393478 10.681370
v 6.599957 10.445478 -2.335166
v -16.078764 8.227441 0.651719
v -15.483522 -14.561089 10.492033
v -15.435608 -14.014561 11.261683
v -10.860966 -11.318503 2.239728
v -10.345602 -5.440078 10.518037
v -14.702692 -12.779909 11.154604
v -14.984969 -14.211370 9.602004
v -11.259748 -11.598238 2.951646
v -10.811213 -6.224433 10.586061
v -19.190765 -12.983547 9.602614
v -13.035129 -10.393332 1.718116
v -18.189186 -11.296303 10.318146
v -13.125614 -5.239585 10.030804
v -19.142851 -12.437019 10.372264
v -12.519765 -4.514907 9.996426
v -18.526867 -12.704186 8.752254
v -13.566169 -10.616788 2.398304
v -14.054387 -14.687508 10.492832
v -14.006476 -14.140981 11.262484
v -10.022831 -11.392644 2.240197
v -9.507467 -5.514218 10.518506
v -13.358657 -12.898801 11.155356
v -13.619578 -14.332150 9.602770
v -10.370630 -11.676889 2.952145
v -9.919017 -6.303355 10.586561
v 15.580889 -8.753420 5.594823
v 7.844448 -2.354608 7.194629
v 14.648169 -9.184877 4.187891
v 8.036825 -8.325074 -0.573930
v 15.532978 -9.299946 4.825174
v 7.329083 -8.233034 -1.083680
v 14.466909 -7.832045 5.825181
v 8.552141 -2.939943 7.048285
v 16.807695 -8.669784 4.298338
v 16.855608 -8.123256 5.067986
v 8.076659 -7.863466 -1.392650
v 8.592023 -1.985041 6.885658
v 15.665722 -7.239405 5.329716
v 15.866032 -8.582820 3.684552
v 8.829878 -7.933026 -0.901694
v 9.347939 -2.546537 6.719386
v 19.054327 -5.338011 2.953304
v 9.881491 -0.351596 5.645474
v 17.966686 -5.921800 1.664186
v 10.197786 -6.200216 -2.217321
v 19.006414 -5.884538 2.183656
v 9.366127 -6.230021 -2.632835
v 17.733517 -4.620008 3.340952
v 10.720579 -0.807730 5.399207
v 19.227257 -5.464859 1.871893
v 19.275169 -4.918333 2.641541
v 9.495645 -5.983895 -2.815671
v 10.011008 -0.105470 5.462637
v 17.941210 -4.225320 3.047755
v 18.177681 -5.520840 1.366329
v 10.335181 -5.939119 -2.411280
v 10.858451 -0.545729 5.204576
v -26.699322 4.896710 -2.626709
v -26.651409 5.443237 -1.857061
v -17.438625 0.092789 -5.453938
v -16.923260 5.971214 2.824371
v -25.250637 5.519263 -1.182975
v -25.700537 4.378598 -2.931633
v -18.237535 0.507219 -5.210037
v -17.813148 5.922918 2.396135
v -26.468718 5.360985 -2.970747
v -26.420805 5.907512 -2.201098
v -17.303383 0.365069 -5.655704
v -16.788021 6.243495 2.622605
v -25.033766 5.955891 -1.506525
v -25.480219 4.822165 -3.260325
v -18.094067 0.796062 -5.424075
v -17.669186 6.212760 2.181355
v -24.078199 8.389194 -5.269899
v -15.901433 2.141004 -7.004073
v -22.785591 8.803784 -3.668773
v -16.176804 8.103248 0.746012
v -24.030287 8.935722 -4.500250
v -15.386069 8.019429 1.274236
v -23.196320 7.715314 -5.456933
v -16.606834 2.680030 -6.854467
v -23.270773 8.706556 -5.545524
v -23.222862 9.253086 -4.775876
v -15.427905 2.327126 -7.165717
v -14.912541 8.205551 1.112592
v -22.026243 9.102247 -3.927985
v -22.424904 8.018521 -5.720266
v -16.104502 2.877472 -7.025944
v -15.672732 8.301374 0.573942
v 6.802970 14.182682 -11.306353
v 2.209252 5.538674 -10.544234
v 6.256737 14.252294 -9.345782
v 3.102068 11.720077 -3.022499
v 6.850885 14.729210 -10.536703
v 2.724616 11.417100 -2.265925
v 6.307528 13.250407 -11.224156
v 2.605547 6.284385 -10.609982
v 7.633866 14.171673 -11.350263
v 7.681781 14.718201 -10.580613
v 2.696543 5.532218 -10.569985
v 3.211906 11.410644 -2.291677
v 7.038157 14.241940 -9.387076
v 7.101365 13.239888 -11.266107
v 3.122480 6.277535 -10.637299
v 3.620790 11.713204 -3.049911
v 12.082989 12.278438 -10.282855
v 5.305792 4.421904 -9.943990
v 11.222355 12.461439 -8.383229
v 6.398342 10.531272 -2.383537
v 12.130903 12.824965 -9.513206
v 5.821156 10.300329 -1.665681
v 11.352055 11.431093 -10.246307
v 5.890454 5.099680 -9.973224
v 12.641609 12.202942 -9.103301
v 6.120666 9.935537 -1.425287
v 11.839982 10.836815 -9.854686
v 6.208184 4.712696 -9.718206
v 12.593697 11.656414 -9.872951
v 5.605302 4.057111 -9.703596
v 11.702650 11.876457 -7.997734
v 6.717172 10.142948 -2.127637
vt 0.878167 0.500000
vt 0.878167 1.000000
vt 0.875000 1.000000
vt 0.875000 0.500000
vt 0.767255 0.500000
vt 0.767255 1.000000
vt 0.750000 1.000000
vt 0.750000 0.500000
vt 0.625816 0.500000
vt 0.625816 1.000000
vt 0.625000 1.000000
vt 0.625000 0.500000
vt 0.506954 0.500000
vt 0.506954 1.000000
vt 0.500000 1.000000
vt 0.500000 0.500000
vt 0.377252 0.500000
vt 0.377252 1.000000
vt 0.375000 1.000000
vt 0.375000 0.500000
vt 0.258011 0.500000
vt 0.258011 1.000000
vt 0.250000 1.000000
vt 0.250000 0.500000
vt 0.878167 0.500000
vt 0.875000 0.500000
vt 0.875000 0.500000
vt 0.878167 0.500000
vt 0.125663 0.500000
vt 0.125663 1.000000
vt 0.125000 1.000000
vt 0.125000 0.500000
vt 0.016250 0.500000
vt 0.016250 1.000000
vt 0.000000 1.000000
vt 0.000000 0.500000
vt 0.016250 0.500000
vt 0.000000 0.500000
vt 0.000000 0.500000
vt 0.016250 0.500000
vt 0.419706 0.419706
vt 0.415406 0.421487
vt 0.254924 0.487961
vt 0.250000 0.490000
vt 0.227938 0.480862
vt 0.095757 0.426110
vt 0.080294 0.419706
vt 0.079922 0.418806
vt 0.011925 0.254646
vt 0.010000 0.250000
vt 0.014505 0.239124
vt 0.076568 0.089290
vt 0.080294 0.080294
vt 0.083352 0.079028
vt 0.246472 0.011461
vt 0.250000 0.010000
vt 0.259441 0.013911
vt 0.403153 0.073438
vt 0.419706 0.080294
vt 0.420164 0.081402
vt 0.490000 0.250000
vt 0.480296 0.273426
vt 0.428582 0.398276
vt 0.750000 0.490000
vt 0.754924 0.487961
vt 0.915405 0.421487
vt 0.919706 0.419706
vt 0.928582 0.398276
vt 0.980296 0.273426
vt 0.990000 0.250000
vt 0.920164 0.081402
vt 0.919706 0.080294
vt 0.903153 0.073438
vt 0.759441 0.013911
vt 0.750000 0.010000
vt 0.746472 0.011461
vt 0.583352 0.079028
vt 0.580294 0.080294
vt 0.576568 0.089290
vt 0.514505 0.239124
vt 0.510000 0.250000
vt 0.511925 0.254646
vt 0.579922 0.418806
vt 0.580294 0.419706
vt 0.595757 0.426110
vt 0.727938 0.480862
vt 0.625816 1.000000
vt 0.750000 1.000000
vt 0.750000 1.000000
vt 0.625816 1.000000
vt 0.113611 1.000000
vt 0.125000 1.000000
vt 0.125000 1.000000
vt 0.113611 1.000000
vt 0.996373 1.000000
vt 1.000000 1.000000
vt 1.000000 1.000000
vt 0.996373 1.000000
vt 0.258011 0.500000
vt 0.250000 0.500000
vt 0.250000 0.500000
vt 0.258011 0.500000
vt 0.368374 1.000000
vt 0.375000 1.000000
vt 0.375000 1.000000
vt 0.368374 1.000000
vt 0.506954 0.500000
vt 0.500000 0.500000
vt 0.500000 0.500000
vt 0.506954 0.500000
vt 0.612808 1.000000
vt 0.625000 1.000000
vt 0.625000 1.000000
vt 0.612808 1.000000
vt 0.767255 0.500000
vt 0.750000 0.500000
vt 0.750000 0.500000
vt 0.767255 0.500000
vt 0.125663 0.500000
vt 0.125000 0.500000
vt 0.125000 0.500000
vt 0.125663 0.500000
vt 0.859215 1.000000
vt 0.875000 1.000000
vt 0.875000 1.000000
vt 0.859215 1.000000
vt 0.246578 1.000000
vt 0.250000 1.000000
vt 0.250000 1.000000
vt 0.246578 1.000000
vt 0.377252 0.500000
vt 0.375000 0.500000
vt 0.375000 0.500000
vt 0.377252 0.500000
vt 0.497402 1.000000
vt 0.500000 1.000000
vt 0.500000 1.000000
vt 0.497402 1.000000
vt 0.625816 0.500000
vt 0.625000 0.500000
vt 0.625000 0.500000
vt 0.625816 0.500000
vt 0.497402 1.000000
vt 0.500000 1.000000
vt 0.497402 1.000000
vt 0.246578 1.000000
vt 0.250000 1.000000
vt 0.246578 1.000000
vt 0.859215 1.000000
vt 0.875000 1.000000
vt 0.859215 1.000000
vt 0.612808 1.000000
vt 0.625000 1.000000
vt 0.612808 1.000000
vt 0.368374 1.000000
vt 0.375000 1.000000
vt 0.368374 1.000000
vt 0.996373 1.000000
vt 1.000000 1.000000
vt 1.000000 1.000000
vt 0.996373 1.000000
vt 0.113611 1.000000
vt 0.125000 1.000000
vt 0.113611 1.000000
vt 0.750000 1.000000
vt 0.625816 1.000000
vt 0.625000 0.500000
vt 0.625816 0.500000
vt 0.375000 0.500000
vt 0.377252 0.500000
vt 0.125000 0.500000
vt 0.125663 0.500000
vt 0.750000 0.500000
vt 0.767255 0.500000
vt 0.500000 0.500000
vt 0.506954 0.500000
vt 0.250000 0.500000
vt 0.258011 0.500000
vt 0.000000 0.500000
vt 0.016250 0.500000
vt 0.875000 0.500000
vt 0.878167 0.500000
vt 0.767255 1.000000
vt 0.767255 1.000000
vt 0.859215 0.500000
vt 0.859215 0.500000
vt 0.859215 0.500000
vt 0.767255 1.000000
vt 0.859215 0.500000
vt 0.878167 1.000000
vt 0.878167 1.000000
vt 0.996374 0.500000
vt 0.996373 0.500000
vt 0.996374 0.500000
vt 0.878167 1.000000
vt 0.996373 0.500000
vt 1.000000 0.500000
vt 1.000000 0.500000
vt 1.000000 0.500000
vt 1.000000 0.500000
vt 0.000000 1.000000
vt 0.016250 1.000000
vt 0.016250 1.000000
vt 0.000000 1.000000
vt 0.113611 0.500000
vt 0.113611 0.500000
vt 0.113611 0.500000
vt 0.016250 1.000000
vt 0.000000 1.000000
vt 0.113611 0.500000
vt 0.125663 1.000000
vt 0.125663 1.000000
vt 0.246578 0.500000
vt 0.246578 0.500000
vt 0.246578 0.500000
vt 0.125663 1.000000
vt 0.246578 0.500000
vt 0.506954 1.000000
vt 0.506954 1.000000
vt 0.612808 0.500000
vt 0.612808 0.500000
vt 0.612808 0.500000
vt 0.506954 1.000000
vt 0.612808 0.500000
vt 0.377252 1.000000
vt 0.377252 1.000000
vt 0.497402 0.500000
vt 0.497402 0.500000
vt 0.497402 0.500000
vt 0.377252 1.000000
vt 0.497402 0.500000
vt 0.258011 1.000000
vt 0.258011 1.000000
vt 0.368374 0.500000
vt 0.368374 0.500000
vt 0.368374 0.500000
vt 0.258011 1.000000
vt 0.368374 0.500000
vn 0.2013 -0.9712 0.1276
vn 0.2467 -0.4537 0.8563
vn -0.0817 -0.4475 0.8905
vn -0.1286 -0.9821 0.1377
vn -0.3993 -0.9160 0.0396
vn -0.3468 -0.3173 0.8826
vn -0.6379 -0.1766 0.7495
vn -0.6862 -0.7270 -0.0255
vn -0.8448 -0.4839 -0.2282
vn -0.7933 0.1041 0.5998
vn -0.8450 0.3963 0.3592
vn -0.8935 -0.1574 -0.4205
vn -0.7447 0.0854 -0.6618
vn -0.6913 0.6952 0.1969
vn -0.5126 0.8586 -0.0040
vn -0.5600 0.3183 -0.7649
vn -0.2467 0.4537 -0.8563
vn -0.2013 0.9712 -0.1276
vn 0.1286 0.9821 -0.1377
vn 0.0817 0.4475 -0.8905
vn 0.3468 0.3173 -0.8826
vn 0.3993 0.9160 -0.0396
vn 0.6862 0.7270 0.0255
vn 0.6379 0.1766 -0.7495
vn 0.1096 -0.9404 -0.3219
vn -0.0702 -0.9118 -0.4046
vn -0.0413 -0.8140 -0.5794
vn 0.0310 -0.8003 -0.5988
vn 0.7933 -0.1041 -0.5998
vn 0.8448 0.4839 0.2282
vn 0.8935 0.1574 0.4205
vn 0.8450 -0.3963 -0.3592
vn 0.6913 -0.6952 -0.1969
vn 0.7447 -0.0854 0.6618
vn 0.5600 -0.3183 0.7649
vn 0.5126 -0.8586 0.0040
vn 0.3297 -0.7220 -0.6082
vn 0.2247 -0.8504 -0.4758
vn 0.1056 -0.7855 -0.6097
vn 0.1433 -0.6677 -0.7305
vn 0.0544 0.2784 0.9589
vn 0.1272 0.2969 0.9464
vn 0.2014 0.3077 0.9299
vn 0.2420 0.4583 0.8552
vn 0.2420 0.4582 0.8552
vn 0.3241 0.5289 0.7843
vn 0.2863 0.6149 0.7348
vn 0.2648 0.6953 0.6681
vn 0.1534 0.7337 0.6619
vn 0.0413 0.8140 0.5794
vn -0.0310 0.8003 0.5987
vn -0.1056 0.7855 0.6097
vn -0.1433 0.6677 0.7305
vn -0.2267 0.5824 0.7807
vn -0.1881 0.5050 0.8424
vn -0.1675 0.4143 0.8946
vn -0.0549 0.3892 0.9195
vn -0.1534 -0.7337 -0.6619
vn -0.2648 -0.6953 -0.6681
vn -0.2863 -0.6149 -0.7348
vn -0.3241 -0.5289 -0.7843
vn -0.2420 -0.4583 -0.8552
vn -0.2014 -0.3077 -0.9299
vn -0.1272 -0.2969 -0.9464
vn -0.0544 -0.2784 -0.9589
vn 0.0549 -0.3892 -0.9195
vn 0.1675 -0.4143 -0.8946
vn 0.1881 -0.5050 -0.8424
vn 0.2267 -0.5824 -0.7807
vn -0.4150 0.3998 0.8173
vn -0.2913 0.2939 0.9103
vn 0.4206 0.3142 0.8511
vn 0.4714 0.4727 0.7445
vn 0.1907 -0.0148 0.9815
vn 0.3127 0.1531 0.9374
vn 0.1574 -0.1777 -0.9714
vn 0.2913 -0.2939 -0.9103
vn 0.2472 0.8467 0.4712
vn 0.0702 0.9118 0.4046
vn -0.4206 -0.3142 -0.8511
vn -0.3127 -0.1531 -0.9374
vn -0.3297 0.7220 0.6082
vn -0.3798 0.5721 0.7269
vn -0.2472 -0.8467 -0.4712
vn -0.3822 -0.7428 -0.5496
vn 0.4150 -0.3998 -0.8173
vn 0.3798 -0.5721 -0.7269
vn -0.1574 0.1777 0.9714
vn 0.0170 0.0831 0.9964
vn 0.5037 0.6128 0.6088
vn 0.3822 0.7428 0.5496
vn -0.1907 0.0148 -0.9815
vn -0.0170 -0.0831 -0.9964
vn -0.1096 0.9404 0.3219
vn -0.2247 0.8504 0.4758
vn -0.5037 -0.6128 -0.6088
vn -0.4714 -0.4727 -0.7445
vn 0.3992 0.9160 -0.0396
usemtl None
s 1
f 81/1/1 82/2/2 4/3/3 3/4/4
f 73/5/5 77/6/6 6/7/7 5/8/8
f 121/9/9 122/10/10 8/11/11 7/12/12
f 137/13/13 141/14/14 10/15/15 9/16/16
f 153/17/17 157/18/18 12/19/19 11/20/20
f 169/21/21 173/22/22 14/23/23 13/24/24
f 87/25/25 50/26/26 18/27/27 83/28/28
f 113/29/29 114/30/30 16/31/31 15/32/32
f 97/33/33 98/34/34 2/35/35 1/36/36
f 103/37/37 49/38/38 17/39/39 99/40/40
f 19/41/41 84/42/42 90/43/42 20/44/43 100/45/44 106/46/45 32/47/46 116/48/47 178/49/47 30/50/48 174/51/49 164/52/49 28/53/50 158/54/51 148/55/51 26/56/52 142/57/53 132/58/53 24/59/54 124/60/55 22/61/56 78/62/57 68/63/57
f 17/64/39 94/65/28 83/66/28 18/67/27 67/68/58 74/69/58 21/70/59 123/71/60 23/72/61 131/73/62 138/74/62 25/75/63 147/76/64 154/77/64 27/78/65 163/79/66 170/80/66 29/81/67 182/82/68 115/83/68 31/84/69 110/85/40 99/86/40
f 128/87/70 57/88/71 22/89/56 124/90/55
f 112/91/72 58/92/73 32/93/46 106/94/45
f 96/95/74 61/96/75 20/97/43 90/98/42
f 176/99/76 51/100/77 29/101/67 170/102/66
f 168/103/78 59/104/79 28/105/50 164/106/49
f 144/107/80 52/108/81 25/109/63 138/110/62
f 136/111/82 60/112/83 24/113/54 132/114/53
f 80/115/84 53/116/85 21/117/59 74/118/58
f 119/119/86 54/120/87 31/121/69 115/122/68
f 72/123/88 62/124/89 19/125/41 68/126/57
f 184/127/90 63/128/91 30/129/48 178/130/47
f 160/131/92 55/132/93 27/133/65 154/134/64
f 152/135/94 64/136/95 26/137/52 148/138/51
f 127/139/96 56/140/97 23/141/61 123/142/60
f 146/143/18 10/15/15 40/144/95 149/145/94
f 177/146/30 14/23/23 39/147/91 183/148/90
f 66/149/6 4/3/3 37/150/89 69/151/88
f 130/152/14 8/11/11 34/153/83 133/154/82
f 162/155/98 12/19/19 38/156/79 165/157/78
f 89/158/2 2/159/35 36/160/75 95/161/74
f 105/162/34 16/31/31 35/163/73 111/164/72
f 122/10/10 6/7/7 33/165/71 125/166/70
f 121/9/9 7/12/12 47/167/97 126/168/96
f 153/17/17 11/20/20 45/169/93 159/170/92
f 113/29/29 15/32/32 42/171/87 118/172/86
f 73/5/5 5/8/8 48/173/85 79/174/84
f 137/13/13 9/16/16 46/175/81 143/176/80
f 169/21/21 13/24/24 44/177/77 175/178/76
f 97/33/33 1/36/36 41/179/38 102/180/37
f 81/1/1 3/4/4 43/181/26 86/182/25
f 126/168/96 47/167/97 56/140/97 127/139/96
f 159/170/92 45/169/93 55/132/93 160/131/92
f 118/172/86 42/171/87 54/120/87 119/119/86
f 79/174/84 48/173/85 53/116/85 80/115/84
f 143/176/80 46/175/81 52/108/81 144/107/80
f 175/178/76 44/177/77 51/100/77 176/99/76
f 102/180/37 41/179/38 49/38/38 103/37/37
f 86/182/25 43/181/26 50/26/26 87/25/25
f 149/145/94 40/144/95 64/136/95 152/135/94
f 183/148/90 39/147/91 63/128/91 184/127/90
f 69/151/88 37/150/89 62/124/89 72/123/88
f 133/154/82 34/153/83 60/112/83 136/111/82
f 165/157/78 38/156/79 59/104/79 168/103/78
f 95/161/74 36/160/75 61/96/75 96/95/74
f 111/164/72 35/163/73 58/92/73 112/91/72
f 125/166/70 33/165/71 57/88/71 128/87/70
f 75/183/88 69/151/88 72/123/88 76/184/88
f 43/181/26 70/185/84 71/186/84 50/26/26
f 3/4/4 65/187/5 70/185/84 43/181/26
f 77/6/6 66/149/6 69/151/88 75/183/88
f 76/184/88 72/123/88 68/126/57 78/188/57
f 50/26/26 71/186/84 67/189/58 18/27/27
f 3/4/4 4/3/3 66/149/6 65/187/5
f 57/88/71 76/184/88 78/188/57 22/89/56
f 6/7/7 77/6/6 75/183/88 33/165/71
f 33/165/71 75/183/88 76/184/88 57/88/71
f 70/185/84 79/174/84 80/115/84 71/186/84
f 65/187/5 73/5/5 79/174/84 70/185/84
f 71/186/84 80/115/84 74/118/58 67/189/58
f 65/187/5 66/149/6 77/6/6 73/5/5
f 37/150/89 85/190/74 88/191/74 62/124/89
f 91/192/25 86/182/25 87/25/25 92/193/25
f 93/194/1 81/1/1 86/182/25 91/192/25
f 4/3/3 82/2/2 85/190/74 37/150/89
f 62/124/89 88/191/74 84/195/42 19/125/41
f 92/193/25 87/25/25 83/28/28 94/196/28
f 93/194/1 89/158/2 82/2/2 81/1/1
f 1/197/36 2/159/35 89/158/2 93/194/1
f 49/198/38 92/193/25 94/196/28 17/199/39
f 1/197/36 93/194/1 91/192/25 41/200/38
f 41/200/38 91/192/25 92/193/25 49/198/38
f 85/190/74 95/161/74 96/95/74 88/191/74
f 82/2/2 89/158/2 95/161/74 85/190/74
f 88/191/74 96/95/74 90/98/42 84/195/42
f 36/201/75 101/202/72 104/203/72 61/204/75
f 107/205/37 102/180/37 103/37/37 108/206/37
f 109/207/33 97/33/33 102/180/37 107/205/37
f 2/35/35 98/34/34 101/202/72 36/201/75
f 61/204/75 104/203/72 100/208/44 20/209/43
f 108/206/37 103/37/37 99/40/40 110/210/40
f 109/207/33 105/162/34 98/34/34 97/33/33
f 15/32/32 16/31/31 105/162/34 109/207/33
f 54/120/87 108/206/37 110/210/40 31/121/69
f 15/32/32 109/207/33 107/205/37 42/171/87
f 42/171/87 107/205/37 108/206/37 54/120/87
f 101/202/72 111/164/72 112/91/72 104/203/72
f 98/34/34 105/162/34 111/164/72 101/202/72
f 104/203/72 112/91/72 106/94/45 100/208/44
f 35/163/73 117/211/90 120/212/90 58/92/73
f 179/213/86 118/172/86 119/119/86 180/214/86
f 181/215/29 113/29/29 118/172/86 179/213/86
f 16/31/31 114/30/30 117/211/90 35/163/73
f 58/92/73 120/212/90 116/216/47 32/93/46
f 180/214/86 119/119/86 115/122/68 182/217/68
f 181/215/29 177/146/30 114/30/30 113/29/29
f 34/153/83 125/166/70 128/87/70 60/112/83
f 48/173/85 126/168/96 127/139/96 53/116/85
f 5/8/8 121/9/9 126/168/96 48/173/85
f 8/11/11 122/10/10 125/166/70 34/153/83
f 53/116/85 127/139/96 123/142/60 21/117/59
f 60/112/83 128/87/70 124/90/55 24/113/54
f 5/8/8 6/7/7 122/10/10 121/9/9
f 139/218/82 133/154/82 136/111/82 140/219/82
f 47/167/97 134/220/80 135/221/80 56/140/97
f 7/12/12 129/222/13 134/220/80 47/167/97
f 141/14/14 130/152/14 133/154/82 139/218/82
f 140/219/82 136/111/82 132/114/53 142/223/53
f 56/140/97 135/221/80 131/224/62 23/141/61
f 7/12/12 8/11/11 130/152/14 129/222/13
f 64/136/95 140/219/82 142/223/53 26/137/52
f 10/15/15 141/14/14 139/218/82 40/144/95
f 40/144/95 139/218/82 140/219/82 64/136/95
f 134/220/80 143/176/80 144/107/80 135/221/80
f 129/222/13 137/13/13 143/176/80 134/220/80
f 135/221/80 144/107/80 138/110/62 131/224/62
f 129/222/13 130/152/14 141/14/14 137/13/13
f 155/225/94 149/145/94 152/135/94 156/226/94
f 46/175/81 150/227/92 151/228/92 52/108/81
f 9/16/16 145/229/17 150/227/92 46/175/81
f 157/18/18 146/143/18 149/145/94 155/225/94
f 156/226/94 152/135/94 148/138/51 158/230/51
f 52/108/81 151/228/92 147/231/64 25/109/63
f 9/16/16 10/15/15 146/143/18 145/229/17
f 59/104/79 156/226/94 158/230/51 28/105/50
f 12/19/19 157/18/18 155/225/94 38/156/79
f 38/156/79 155/225/94 156/226/94 59/104/79
f 150/227/92 159/170/92 160/131/92 151/228/92
f 145/229/17 153/17/17 159/170/92 150/227/92
f 151/228/92 160/131/92 154/134/64 147/231/64
f 145/229/17 146/143/18 157/18/18 153/17/17
f 171/232/78 165/157/78 168/103/78 172/233/78
f 45/169/93 166/234/76 167/235/76 55/132/93
f 11/20/20 161/236/21 166/234/76 45/169/93
f 173/22/22 162/155/98 165/157/78 171/232/78
f 172/233/78 168/103/78 164/106/49 174/237/49
f 55/132/93 167/235/76 163/238/66 27/133/65
f 11/20/20 12/19/19 162/155/98 161/236/21
f 63/128/91 172/233/78 174/237/49 30/129/48
f 14/23/23 173/22/22 171/232/78 39/147/91
f 39/147/91 171/232/78 172/233/78 63/128/91
f 166/234/76 175/178/76 176/99/76 167/235/76
f 161/236/21 169/21/21 175/178/76 166/234/76
f 167/235/76 176/99/76 170/102/66 163/238/66
f 161/236/21 162/155/98 173/22/22 169/21/21
f 13/24/24 14/23/23 177/146/30 181/215/29
f 51/100/77 180/214/86 182/217/68 29/101/67
f 13/24/24 181/215/29 179/213/86 44/177/77
f 44/177/77 179/213/86 180/214/86 51/100/77
f 117/211/90 183/148/90 184/127/90 120/212/90
f 114/30/30 177/146/30 183/148/90 117/211/90
f 120/212/90 184/127/90 178/130/47 116/216/47
