# Blender v2.82 (sub 7) OBJ File: 'Ruby.blend'
# www.blender.org
mtllib Ruby.mtl
o Cylinder
v 5.915045 -7.622221 11.265692
v -3.635181 -7.956707 11.967911
v -10.789898 -1.893947 10.002003
v -11.357970 7.014576 6.519569
v -5.006628 13.550373 3.560573
v 4.543599 13.884859 2.858353
v 11.698315 7.822100 4.824262
v 12.266389 -1.086424 8.306695
v 1.447669 -19.861534 10.051796
v 1.372530 -13.651329 11.987991
v -11.108842 -8.010023 12.268820
v -17.215635 -17.049677 9.997643
v -16.753420 1.708230 7.007505
v -22.036957 0.038856 3.598903
v -12.462096 13.211752 3.973009
v -19.405174 17.378052 -3.375542
v -0.662761 18.266188 -0.488895
v -1.189325 21.491934 -6.113700
v 11.732701 14.059147 2.193988
v 17.473982 18.680073 -6.059546
v 17.463190 2.906630 4.491590
v 22.295300 1.591546 0.339193
v 13.093924 -7.287580 10.538644
v 19.663521 -15.747651 7.313637
v 10.102513 -18.231518 9.544539
v 21.663116 -6.335175 4.158625
v 20.629122 9.879968 -2.180041
v 7.606231 20.915297 -5.758352
v -9.776927 20.306473 -4.480186
v -21.337532 8.410130 0.905729
v -20.303537 -7.805012 7.244394
v -7.280643 -18.840343 10.822708
v -4.543596 -13.884859 -2.858353
v 5.006630 -13.550373 -3.560571
v 11.357972 -7.014576 -6.519567
v 10.789900 1.893949 -10.002002
v 3.635181 7.956709 -11.967911
v -5.915046 7.622221 -11.265692
v -12.266386 1.086426 -8.306697
v -11.698315 -7.822099 -4.824263
v 1.189329 -21.491938 6.113701
v 0.662764 -18.266190 0.488896
v 12.462098 -13.168278 -2.227811
v 19.409121 -17.348633 3.449012
v 16.753422 -1.708227 -7.007504
v 22.036957 -0.038852 -3.598901
v 11.022930 9.400816 -11.050303
v 17.211639 17.021040 -10.071413
v -1.372531 13.651332 -11.987991
v -1.447671 19.861536 -10.051797
v -13.171867 8.553415 -9.271282
v -19.667467 15.718230 -7.387105
v -17.463188 -2.906631 -4.491590
v -22.295300 -1.591548 -0.339194
v -11.732699 -14.015676 -0.448792
v -17.469986 -18.651438 6.133319
v -7.606228 -20.915300 5.758354
v -20.629122 -9.879971 2.180040
v -21.663116 6.335174 -4.158627
v -10.102514 18.231518 -9.544540
v 7.280643 18.840347 -10.822708
v 20.303537 7.805017 -7.244393
v 21.337532 -8.410128 -0.905727
v 9.776931 -20.306477 4.480188
vt 0.687500 0.750000
vt 0.625000 1.000000
vt 0.625000 0.875000
vt 0.187500 0.750000
vt 0.125000 1.000000
vt 0.125000 0.875000
vt 0.812500 0.750000
vt 0.750000 1.000000
vt 0.750000 0.875000
vt 0.312500 0.750000
vt 0.250000 1.000000
vt 0.250000 0.875000
vt 0.437500 0.750000
vt 0.375000 1.000000
vt 0.375000 0.875000
vt 0.062500 0.750000
vt 0.000000 1.000000
vt 0.000000 0.875000
vt 0.562500 0.750000
vt 0.500000 1.000000
vt 0.500000 0.875000
vt 0.000000 0.750000
vt 0.125000 0.750000
vt 0.250000 0.750000
vt 0.375000 0.750000
vt 0.500000 0.750000
vt 0.625000 0.750000
vt 0.750000 0.750000
vt 0.875000 0.875000
vt 0.875000 0.750000
vt 0.937500 0.750000
vt 1.000000 0.750000
vt 1.000000 0.875000
vt 1.000000 1.000000
vt 0.875000 1.000000
vt 0.687500 0.750000
vt 0.625000 1.000000
vt 0.625000 0.875000
vt 0.187500 0.750000
vt 0.125000 1.000000
vt 0.125000 0.875000
vt 0.812500 0.750000
vt 0.750000 1.000000
vt 0.750000 0.875000
vt 0.312500 0.750000
vt 0.250000 1.000000
vt 0.250000 0.875000
vt 0.437500 0.750000
vt 0.375000 1.000000
vt 0.375000 0.875000
vt 0.062500 0.750000
vt 0.000000 1.000000
vt 0.000000 0.875000
vt 0.562500 0.750000
vt 0.500000 1.000000
vt 0.500000 0.875000
vt 0.000000 0.750000
vt 0.125000 0.750000
vt 0.250000 0.750000
vt 0.375000 0.750000
vt 0.500000 0.750000
vt 0.625000 0.750000
vt 0.750000 0.750000
vt 0.875000 0.875000
vt 0.875000 0.750000
vt 0.937500 0.750000
vt 1.000000 0.750000
vt 1.000000 0.875000
vt 1.000000 1.000000
vt 0.875000 1.000000
vn -0.4426 0.2722 0.8544
vn 0.5345 0.3485 0.7700
vn -0.3647 0.1589 0.9175
vn 0.4634 0.4937 0.7359
vn 0.0406 0.7671 0.6403
vn 0.2381 -0.0633 0.9692
vn -0.1394 0.7159 0.6842
vn 0.1111 -0.2946 0.9491
vn 0.5804 0.1453 0.8013
vn 0.6648 0.3364 0.6670
vn 0.1968 0.7908 0.5796
vn -0.0246 0.8662 0.4991
vn -0.5015 0.4584 0.7337
vn -0.5783 0.2353 0.7812
vn -0.1120 -0.1703 0.9790
vn 0.2632 -0.1584 0.9517
vn 0.6684 0.2789 0.6895
vn 0.5593 0.4940 0.6657
vn 0.0370 0.8684 0.4945
vn -0.1684 0.7807 0.6018
vn -0.5820 0.2927 0.7587
vn -0.4753 0.1015 0.8739
vn 0.0495 -0.2967 0.9537
vn 0.0709 0.0658 0.9953
vn -0.2509 0.3385 0.9069
vn 0.0347 0.6325 0.7738
vn 0.3565 0.3598 0.8622
vn 0.0554 0.3666 0.9287
vn 0.0408 -0.1181 0.9922
vn 0.4829 0.1886 0.8551
vn -0.3841 0.4640 0.7982
vn -0.4467 0.3313 0.8311
vn 0.5359 0.3256 0.7790
vn 0.1877 0.7273 0.6601
vn 0.1055 -0.1185 0.9873
vn 0.0008 0.7658 0.6430
vn -0.0889 -0.0747 0.9932
vn 0.3550 -0.1401 -0.9243
vn -0.4537 -0.5125 -0.7290
vn 0.3841 -0.4640 -0.7982
vn -0.4829 -0.1886 -0.8551
vn -0.2581 0.0546 -0.9646
vn -0.1877 -0.7273 -0.6601
vn 0.0889 0.0747 -0.9932
vn -0.0370 -0.8684 -0.4945
vn -0.4501 -0.4966 -0.7421
vn -0.6684 -0.2789 -0.6895
vn -0.2313 0.0459 -0.9718
vn -0.0495 0.2967 -0.9537
vn 0.3497 -0.1655 -0.9221
vn 0.5820 -0.2927 -0.7587
vn 0.1424 -0.7057 -0.6940
vn -0.1901 -0.7170 -0.6707
vn -0.6648 -0.3364 -0.6670
vn -0.4674 -0.1971 -0.8618
vn -0.1111 0.2946 -0.9491
vn 0.0859 0.0580 -0.9946
vn 0.5783 -0.2353 -0.7812
vn 0.3713 -0.4702 -0.8007
vn 0.0246 -0.8662 -0.4991
vn -0.0347 -0.6325 -0.7738
vn 0.2509 -0.3385 -0.9069
vn -0.0709 -0.0658 -0.9953
vn -0.3565 -0.3598 -0.8622
vn -0.0554 -0.3666 -0.9287
vn 0.1594 -0.7072 -0.6888
vn -0.4634 -0.4937 -0.7359
vn 0.3647 -0.1589 -0.9175
vn 0.3769 -0.4834 -0.7901
vn -0.4756 -0.1692 -0.8633
vn -0.2381 0.0633 -0.9692
vn -0.2087 -0.7201 -0.6617
vn 0.1100 0.0675 -0.9916
vn 0.1394 -0.7159 -0.6842
vn -0.3098 0.8862 -0.3446
vn -0.1939 0.9116 -0.3626
vn 0.0748 0.9204 -0.3837
vn 0.1936 0.9028 -0.3840
vn -0.9793 0.2016 -0.0195
vn -0.9954 0.0920 0.0267
vn -0.9792 -0.1573 0.1283
vn -0.1936 -0.9027 0.3843
vn -0.9489 -0.2654 0.1709
vn -0.0748 -0.9204 0.3837
vn 0.1939 -0.9116 0.3626
vn 0.3098 -0.8861 0.3447
vn 0.9793 -0.2017 0.0194
vn 0.9954 -0.0920 -0.0267
vn 0.9792 0.1573 -0.1283
vn 0.9489 0.2655 -0.1707
usemtl Material.001
s off
f 30/1/1 4/2/1 15/3/1
f 26/4/2 8/5/2 23/6/2
f 31/7/3 3/8/3 13/9/3
f 27/10/4 7/11/4 21/12/4
f 28/13/5 6/14/5 19/15/5
f 25/16/6 1/17/6 10/18/6
f 29/19/7 5/20/7 17/21/7
f 10/18/8 9/22/8 25/16/8
f 23/6/9 24/23/9 26/4/9
f 21/12/10 22/24/10 27/10/10
f 19/15/11 20/25/11 28/13/11
f 17/21/12 18/26/12 29/19/12
f 15/3/13 16/27/13 30/1/13
f 13/9/14 14/28/14 31/7/14
f 11/29/15 12/30/15 32/31/15
f 25/16/16 24/23/16 23/6/16
f 26/4/17 22/24/17 21/12/17
f 27/10/18 20/25/18 19/15/18
f 28/13/19 18/26/19 17/21/19
f 29/19/20 16/27/20 15/3/20
f 30/1/21 14/28/21 13/9/21
f 31/7/22 12/30/22 11/29/22
f 32/31/23 9/32/23 10/33/23
f 10/33/24 1/34/24 2/35/24
f 13/9/25 3/8/25 4/2/25
f 17/21/26 5/20/26 6/14/26
f 21/12/27 7/11/27 8/5/27
f 2/35/28 1/17/28 23/6/28 8/5/28 7/11/28 19/15/28 6/14/28 5/20/28 15/3/28 4/2/28 3/8/28 11/29/28
f 32/31/29 2/35/29 11/29/29
f 26/4/30 21/12/30 8/5/30
f 30/1/31 13/9/31 4/2/31
f 31/7/32 11/29/32 3/8/32
f 27/10/33 19/15/33 7/11/33
f 28/13/34 17/21/34 6/14/34
f 25/16/35 23/6/35 1/17/35
f 29/19/36 15/3/36 5/20/36
f 32/31/37 10/33/37 2/35/37
f 62/36/38 36/37/38 47/38/38
f 58/39/39 40/40/39 55/41/39
f 63/42/40 35/43/40 45/44/40
f 59/45/41 39/46/41 53/47/41
f 60/48/42 38/49/42 51/50/42
f 57/51/43 33/52/43 42/53/43
f 61/54/44 37/55/44 49/56/44
f 42/53/45 41/57/45 57/51/45
f 55/41/46 56/58/46 58/39/46
f 53/47/47 54/59/47 59/45/47
f 51/50/48 52/60/48 60/48/48
f 49/56/49 50/61/49 61/54/49
f 47/38/50 48/62/50 62/36/50
f 45/44/51 46/63/51 63/42/51
f 43/64/52 44/65/52 64/66/52
f 57/51/53 56/58/53 55/41/53
f 58/39/54 54/59/54 53/47/54
f 59/45/55 52/60/55 51/50/55
f 60/48/56 50/61/56 49/56/56
f 61/54/57 48/62/57 47/38/57
f 62/36/58 46/63/58 45/44/58
f 63/42/59 44/65/59 43/64/59
f 64/66/60 41/67/60 42/68/60
f 42/68/61 33/69/61 34/70/61
f 45/44/62 35/43/62 36/37/62
f 49/56/63 37/55/63 38/49/63
f 53/47/64 39/46/64 40/40/64
f 34/70/65 33/52/65 55/41/65 40/40/65 39/46/65 51/50/65 38/49/65 37/55/65 47/38/65 36/37/65 35/43/65 43/64/65
f 64/66/66 34/70/66 43/64/66
f 58/39/67 53/47/67 40/40/67
f 62/36/68 45/44/68 36/37/68
f 63/42/69 43/64/69 35/43/69
f 59/45/70 51/50/70 39/46/70
f 60/48/71 49/56/71 38/49/71
f 57/51/72 55/41/72 33/52/72
f 61/54/73 47/38/73 37/55/73
f 64/66/74 42/68/74 34/70/74
f 16/27/75 29/19/75 60/48/75 52/60/75
f 29/19/76 18/26/76 50/61/76 60/48/76
f 18/26/77 28/13/77 61/54/77 50/61/77
f 28/13/78 20/25/78 48/62/78 61/54/78
f 30/1/79 16/27/79 52/60/79 59/45/79
f 14/28/80 30/1/80 59/45/80 54/59/80
f 31/7/81 14/28/81 54/59/81 58/39/81
f 32/31/82 12/30/82 56/58/82 57/51/82
f 12/30/83 31/7/83 58/39/83 56/58/83
f 9/32/84 32/31/84 57/51/84 41/57/84
f 25/16/85 9/32/85 41/67/85 64/66/85
f 24/23/86 25/16/86 64/66/86 44/65/86
f 26/4/87 24/23/87 44/65/87 63/42/87
f 22/24/88 26/4/88 63/42/88 46/63/88
f 27/10/89 22/24/89 46/63/89 62/36/89
f 20/25/90 27/10/90 62/36/90 48/62/90
