# Blender v2.83.0 OBJ File: 'Ruby.blend'
# www.blender.org
mtllib Ruby.mtl
o Cylinder
v 5.007556 -6.452815 9.537304
v -3.077470 -6.735985 10.131788
v -9.134507 -1.603377 8.467491
v -9.615425 5.938396 5.519334
v -4.238509 11.471467 3.014308
v 3.846518 11.754637 2.419824
v 9.903554 6.622028 4.084121
v 10.384473 -0.919744 7.032278
v 1.225567 -16.814367 8.509645
v 1.161955 -11.556934 10.148787
v -9.404518 -6.781121 10.386531
v -14.574406 -14.433906 8.463799
v -14.183103 1.446152 5.932410
v -18.656036 0.032894 3.046757
v -10.550156 11.184797 3.363469
v -16.428022 14.711902 -2.857664
v -0.561079 15.463780 -0.413888
v -1.006858 18.194630 -5.175733
v 9.932666 11.902185 1.857386
v 14.793116 15.814167 -5.129888
v 14.783978 2.460693 3.802488
v 18.874744 1.347370 0.287154
v 11.085048 -6.169516 8.921800
v 16.646732 -13.331637 6.191575
v 8.552581 -15.434428 8.080212
v 18.339552 -5.363228 3.520606
v 17.464193 8.364177 -1.845577
v 6.439280 17.706461 -4.874903
v -8.276947 17.191042 -3.792833
v -18.063917 7.119843 0.766772
v -17.188559 -6.607563 6.132956
v -6.163644 -15.949849 9.162282
v -3.846516 -11.754638 -2.419824
v 4.238511 -11.471467 -3.014307
v 9.615427 -5.938396 -5.519333
v 9.134509 1.603379 -8.467489
v 3.077471 6.735987 -10.131788
v -5.007556 6.452816 -9.537304
v -10.384471 0.919746 -7.032279
v -9.903554 -6.622028 -4.084122
v 1.006861 -18.194632 5.175734
v 0.561082 -15.463782 0.413889
v 10.550158 -11.147993 -1.886020
v 16.431364 -14.686996 2.919863
v 14.183105 -1.446150 -5.932409
v 18.656036 -0.032891 -3.046756
v 9.331787 7.958539 -9.354959
v 14.571022 14.409662 -8.526252
v -1.161956 11.556936 -10.148787
v -1.225569 16.814369 -8.509645
v -11.151033 7.241148 -7.848877
v -16.650074 13.306729 -6.253772
v -14.783978 -2.460694 -3.802489
v -18.874744 -1.347372 -0.287155
v -9.932663 -11.865382 -0.379939
v -14.789732 -15.789924 5.192341
v -6.439277 -17.706463 4.874904
v -17.464193 -8.364179 1.845577
v -18.339552 5.363228 -3.520608
v -8.552582 15.434428 -8.080212
v 6.163644 15.949854 -9.162282
v 17.188559 6.607567 -6.132955
v 18.063917 -7.119842 -0.766770
v 8.276949 -17.191044 3.792835
vt 0.687500 0.750000
vt 0.625000 1.000000
vt 0.625000 0.875000
vt 0.187500 0.750000
vt 0.125000 1.000000
vt 0.125000 0.875000
vt 0.812500 0.750000
vt 0.750000 1.000000
vt 0.750000 0.875000
vt 0.312500 0.750000
vt 0.250000 1.000000
vt 0.250000 0.875000
vt 0.437500 0.750000
vt 0.375000 1.000000
vt 0.375000 0.875000
vt 0.062500 0.750000
vt 0.000000 1.000000
vt 0.000000 0.875000
vt 0.562500 0.750000
vt 0.500000 1.000000
vt 0.500000 0.875000
vt 0.000000 0.750000
vt 0.125000 0.750000
vt 0.250000 0.750000
vt 0.375000 0.750000
vt 0.500000 0.750000
vt 0.625000 0.750000
vt 0.750000 0.750000
vt 0.875000 0.875000
vt 0.875000 0.750000
vt 0.937500 0.750000
vt 1.000000 0.750000
vt 1.000000 0.875000
vt 1.000000 1.000000
vt 0.875000 1.000000
vt 0.687500 0.750000
vt 0.625000 1.000000
vt 0.625000 0.875000
vt 0.187500 0.750000
vt 0.125000 1.000000
vt 0.125000 0.875000
vt 0.812500 0.750000
vt 0.750000 1.000000
vt 0.750000 0.875000
vt 0.312500 0.750000
vt 0.250000 1.000000
vt 0.250000 0.875000
vt 0.437500 0.750000
vt 0.375000 1.000000
vt 0.375000 0.875000
vt 0.062500 0.750000
vt 0.000000 1.000000
vt 0.000000 0.875000
vt 0.562500 0.750000
vt 0.500000 1.000000
vt 0.500000 0.875000
vt 0.000000 0.750000
vt 0.125000 0.750000
vt 0.250000 0.750000
vt 0.375000 0.750000
vt 0.500000 0.750000
vt 0.625000 0.750000
vt 0.750000 0.750000
vt 0.875000 0.875000
vt 0.875000 0.750000
vt 0.937500 0.750000
vt 1.000000 0.750000
vt 1.000000 0.875000
vt 1.000000 1.000000
vt 0.875000 1.000000
vn -0.4426 0.2722 0.8544
vn 0.5345 0.3485 0.7700
vn -0.3647 0.1589 0.9175
vn 0.4634 0.4937 0.7359
vn 0.0406 0.7671 0.6403
vn 0.2381 -0.0633 0.9692
vn -0.1394 0.7159 0.6842
vn 0.1111 -0.2946 0.9491
vn 0.5804 0.1453 0.8013
vn 0.6648 0.3364 0.6670
vn 0.1968 0.7908 0.5796
vn -0.0246 0.8662 0.4991
vn -0.5015 0.4584 0.7337
vn -0.5783 0.2353 0.7812
vn -0.1120 -0.1703 0.9790
vn 0.2632 -0.1584 0.9517
vn 0.6684 0.2789 0.6895
vn 0.5593 0.4940 0.6657
vn 0.0370 0.8684 0.4945
vn -0.1684 0.7807 0.6018
vn -0.5820 0.2927 0.7587
vn -0.4753 0.1015 0.8739
vn 0.0495 -0.2967 0.9537
vn 0.0709 0.0658 0.9953
vn -0.2509 0.3385 0.9069
vn 0.0347 0.6325 0.7738
vn 0.3565 0.3598 0.8622
vn 0.0554 0.3666 0.9287
vn 0.0408 -0.1181 0.9922
vn 0.4829 0.1886 0.8551
vn -0.3841 0.4640 0.7982
vn -0.4467 0.3313 0.8311
vn 0.5359 0.3256 0.7790
vn 0.1877 0.7273 0.6601
vn 0.1055 -0.1185 0.9873
vn 0.0008 0.7658 0.6430
vn -0.0889 -0.0747 0.9932
vn 0.3550 -0.1401 -0.9243
vn -0.4537 -0.5125 -0.7290
vn 0.3841 -0.4640 -0.7982
vn -0.4829 -0.1886 -0.8551
vn -0.2581 0.0546 -0.9646
vn -0.1877 -0.7273 -0.6601
vn 0.0889 0.0747 -0.9932
vn -0.0370 -0.8684 -0.4945
vn -0.4501 -0.4966 -0.7421
vn -0.6684 -0.2789 -0.6895
vn -0.2313 0.0459 -0.9718
vn -0.0495 0.2967 -0.9537
vn 0.3497 -0.1655 -0.9221
vn 0.5820 -0.2927 -0.7587
vn 0.1424 -0.7057 -0.6940
vn -0.1901 -0.7170 -0.6707
vn -0.6648 -0.3364 -0.6670
vn -0.4674 -0.1971 -0.8618
vn -0.1111 0.2946 -0.9491
vn 0.0859 0.0580 -0.9946
vn 0.5783 -0.2353 -0.7812
vn 0.3713 -0.4702 -0.8007
vn 0.0246 -0.8662 -0.4991
vn -0.0347 -0.6325 -0.7738
vn 0.2509 -0.3385 -0.9069
vn -0.0709 -0.0658 -0.9953
vn -0.3565 -0.3598 -0.8622
vn -0.0554 -0.3666 -0.9287
vn 0.1594 -0.7072 -0.6888
vn -0.4634 -0.4937 -0.7359
vn 0.3647 -0.1589 -0.9175
vn 0.3769 -0.4834 -0.7901
vn -0.4756 -0.1692 -0.8633
vn -0.2381 0.0633 -0.9692
vn -0.2087 -0.7201 -0.6617
vn 0.1100 0.0675 -0.9916
vn 0.1394 -0.7159 -0.6842
vn -0.3098 0.8862 -0.3446
vn -0.1939 0.9116 -0.3626
vn 0.0748 0.9204 -0.3837
vn 0.1936 0.9028 -0.3840
vn -0.9793 0.2016 -0.0195
vn -0.9954 0.0920 0.0267
vn -0.9792 -0.1573 0.1283
vn -0.1936 -0.9027 0.3843
vn -0.9489 -0.2654 0.1709
vn -0.0748 -0.9204 0.3837
vn 0.1939 -0.9116 0.3626
vn 0.3098 -0.8861 0.3447
vn 0.9793 -0.2017 0.0194
vn 0.9954 -0.0920 -0.0267
vn 0.9792 0.1573 -0.1283
vn 0.9489 0.2655 -0.1707
usemtl Material.001
s off
f 30/1/1 4/2/1 15/3/1
f 26/4/2 8/5/2 23/6/2
f 31/7/3 3/8/3 13/9/3
f 27/10/4 7/11/4 21/12/4
f 28/13/5 6/14/5 19/15/5
f 25/16/6 1/17/6 10/18/6
f 29/19/7 5/20/7 17/21/7
f 10/18/8 9/22/8 25/16/8
f 23/6/9 24/23/9 26/4/9
f 21/12/10 22/24/10 27/10/10
f 19/15/11 20/25/11 28/13/11
f 17/21/12 18/26/12 29/19/12
f 15/3/13 16/27/13 30/1/13
f 13/9/14 14/28/14 31/7/14
f 11/29/15 12/30/15 32/31/15
f 25/16/16 24/23/16 23/6/16
f 26/4/17 22/24/17 21/12/17
f 27/10/18 20/25/18 19/15/18
f 28/13/19 18/26/19 17/21/19
f 29/19/20 16/27/20 15/3/20
f 30/1/21 14/28/21 13/9/21
f 31/7/22 12/30/22 11/29/22
f 32/31/23 9/32/23 10/33/23
f 10/33/24 1/34/24 2/35/24
f 13/9/25 3/8/25 4/2/25
f 17/21/26 5/20/26 6/14/26
f 21/12/27 7/11/27 8/5/27
f 2/35/28 1/17/28 23/6/28 8/5/28 7/11/28 19/15/28 6/14/28 5/20/28 15/3/28 4/2/28 3/8/28 11/29/28
f 32/31/29 2/35/29 11/29/29
f 26/4/30 21/12/30 8/5/30
f 30/1/31 13/9/31 4/2/31
f 31/7/32 11/29/32 3/8/32
f 27/10/33 19/15/33 7/11/33
f 28/13/34 17/21/34 6/14/34
f 25/16/35 23/6/35 1/17/35
f 29/19/36 15/3/36 5/20/36
f 32/31/37 10/33/37 2/35/37
f 62/36/38 36/37/38 47/38/38
f 58/39/39 40/40/39 55/41/39
f 63/42/40 35/43/40 45/44/40
f 59/45/41 39/46/41 53/47/41
f 60/48/42 38/49/42 51/50/42
f 57/51/43 33/52/43 42/53/43
f 61/54/44 37/55/44 49/56/44
f 42/53/45 41/57/45 57/51/45
f 55/41/46 56/58/46 58/39/46
f 53/47/47 54/59/47 59/45/47
f 51/50/48 52/60/48 60/48/48
f 49/56/49 50/61/49 61/54/49
f 47/38/50 48/62/50 62/36/50
f 45/44/51 46/63/51 63/42/51
f 43/64/52 44/65/52 64/66/52
f 57/51/53 56/58/53 55/41/53
f 58/39/54 54/59/54 53/47/54
f 59/45/55 52/60/55 51/50/55
f 60/48/56 50/61/56 49/56/56
f 61/54/57 48/62/57 47/38/57
f 62/36/58 46/63/58 45/44/58
f 63/42/59 44/65/59 43/64/59
f 64/66/60 41/67/60 42/68/60
f 42/68/61 33/69/61 34/70/61
f 45/44/62 35/43/62 36/37/62
f 49/56/63 37/55/63 38/49/63
f 53/47/64 39/46/64 40/40/64
f 34/70/65 33/52/65 55/41/65 40/40/65 39/46/65 51/50/65 38/49/65 37/55/65 47/38/65 36/37/65 35/43/65 43/64/65
f 64/66/66 34/70/66 43/64/66
f 58/39/67 53/47/67 40/40/67
f 62/36/68 45/44/68 36/37/68
f 63/42/69 43/64/69 35/43/69
f 59/45/70 51/50/70 39/46/70
f 60/48/71 49/56/71 38/49/71
f 57/51/72 55/41/72 33/52/72
f 61/54/73 47/38/73 37/55/73
f 64/66/74 42/68/74 34/70/74
f 16/27/75 29/19/75 60/48/75 52/60/75
f 29/19/76 18/26/76 50/61/76 60/48/76
f 18/26/77 28/13/77 61/54/77 50/61/77
f 28/13/78 20/25/78 48/62/78 61/54/78
f 30/1/79 16/27/79 52/60/79 59/45/79
f 14/28/80 30/1/80 59/45/80 54/59/80
f 31/7/81 14/28/81 54/59/81 58/39/81
f 32/31/82 12/30/82 56/58/82 57/51/82
f 12/30/83 31/7/83 58/39/83 56/58/83
f 9/32/84 32/31/84 57/51/84 41/57/84
f 25/16/85 9/32/85 41/67/85 64/66/85
f 24/23/86 25/16/86 64/66/86 44/65/86
f 26/4/87 24/23/87 44/65/87 63/42/87
f 22/24/88 26/4/88 63/42/88 46/63/88
f 27/10/89 22/24/89 46/63/89 62/36/89
f 20/25/90 27/10/90 62/36/90 48/62/90
